<svg width="18" height="18" viewBox="0 0 18 18" fill="none" xmlns="http://www.w3.org/2000/svg">
<path d="M15.6 6.62925C15.3993 6.42718 15.2862 6.15429 15.285 5.8695V4.91175C15.2842 4.32898 15.0524 3.77031 14.6403 3.35823C14.2282 2.94615 13.6695 2.71429 13.0868 2.7135H12.1305C11.8462 2.71261 11.5736 2.60002 11.3715 2.4L10.554 1.58175C10.1415 1.17029 9.58264 0.939224 9 0.939224C8.41737 0.939224 7.85851 1.17029 7.446 1.58175L6.62925 2.4C6.42718 2.60068 6.15429 2.71383 5.8695 2.715H4.91175C4.32924 2.71579 3.7708 2.94744 3.35876 3.3592C2.94672 3.77095 2.71469 4.32924 2.7135 4.91175V5.8695C2.71261 6.15383 2.60002 6.42642 2.4 6.6285L1.581 7.446C1.16954 7.85851 0.938477 8.41737 0.938477 9C0.938477 9.58264 1.16954 10.1415 1.581 10.554L2.4 11.3708C2.60068 11.5728 2.71383 11.8457 2.715 12.1305V13.0883C2.7158 13.671 2.94765 14.2297 3.35973 14.6418C3.77181 15.0539 4.33048 15.2857 4.91325 15.2865H5.8695C6.15394 15.2876 6.42654 15.4005 6.6285 15.6008L7.446 16.419C7.85842 16.8306 8.41731 17.0618 9 17.0618C9.5827 17.0618 10.1416 16.8306 10.554 16.419L11.3708 15.6015C11.5728 15.4008 11.8457 15.2877 12.1305 15.2865H13.0883C13.671 15.2857 14.2297 15.0539 14.6418 14.6418C15.0539 14.2297 15.2857 13.671 15.2865 13.0883V12.1305C15.2875 11.8459 15.4007 11.5732 15.6015 11.3715L16.419 10.554C16.8305 10.1415 17.0615 9.58264 17.0615 9C17.0615 8.41737 16.8305 7.85851 16.419 7.446L15.6 6.62925Z" fill="#699EFA"/>
<path d="M8.24964 11.0624C8.17576 11.0626 8.10258 11.0481 8.03434 11.0198C7.96611 10.9914 7.90418 10.9498 7.85214 10.8974L6.35214 9.3974C6.25278 9.29077 6.19869 9.14973 6.20126 9.00401C6.20383 8.85828 6.26287 8.71924 6.36592 8.61618C6.46898 8.51312 6.60802 8.45409 6.75375 8.45152C6.89948 8.44895 7.04051 8.50304 7.14714 8.6024L8.24964 9.70415L10.8521 7.1024C10.9588 7.00304 11.0998 6.94895 11.2455 6.95152C11.3913 6.95409 11.5303 7.01312 11.6334 7.11618C11.7364 7.21924 11.7955 7.35828 11.798 7.50401C11.8006 7.64973 11.7465 7.79077 11.6471 7.8974L8.64714 10.8974C8.59511 10.9498 8.53318 10.9914 8.46494 11.0198C8.3967 11.0481 8.32352 11.0626 8.24964 11.0624Z" fill="white"/>
</svg>
