<svg width="18" height="18" viewBox="0 0 18 18" fill="none" xmlns="http://www.w3.org/2000/svg">
<path fill-rule="evenodd" clip-rule="evenodd" d="M8.58342 1.29163C4.55634 1.29163 1.29175 4.55622 1.29175 8.58329C1.29175 12.6104 4.55634 15.875 8.58342 15.875C12.6105 15.875 15.8751 12.6104 15.8751 8.58329C15.8751 4.55622 12.6105 1.29163 8.58342 1.29163ZM0.041748 8.58329C0.041748 3.86586 3.86598 0.041626 8.58342 0.041626C13.3008 0.041626 17.1251 3.86586 17.1251 8.58329C17.1251 10.7171 16.3427 12.6681 15.0491 14.1651L17.7754 16.8914C18.0194 17.1354 18.0194 17.5312 17.7754 17.7752C17.5313 18.0193 17.1356 18.0193 16.8915 17.7752L14.1653 15.049C12.6682 16.3426 10.7172 17.125 8.58342 17.125C3.86598 17.125 0.041748 13.3007 0.041748 8.58329Z" fill="white" fill-opacity="0.44"/>
</svg>
