<svg width="24" height="24" viewBox="0 0 24 24" fill="none" xmlns="http://www.w3.org/2000/svg">
<path fill-rule="evenodd" clip-rule="evenodd" d="M16.8293 5C16.4175 3.83481 15.3062 3 14 3C12.6938 3 11.5825 3.83481 11.1707 5H4C3.44772 5 3 5.44772 3 6C3 6.55228 3.44772 7 4 7H11.1707C11.5825 8.16519 12.6938 9 14 9C15.3062 9 16.4175 8.16519 16.8293 7H20C20.5523 7 21 6.55228 21 6C21 5.44772 20.5523 5 20 5H16.8293ZM14 5C13.4477 5 13 5.44772 13 6C13 6.55228 13.4477 7 14 7C14.5523 7 15 6.55228 15 6C15 5.44772 14.5523 5 14 5Z" fill="white"/>
<path fill-rule="evenodd" clip-rule="evenodd" d="M8 9C9.30622 9 10.4175 9.83481 10.8293 11H20C20.5523 11 21 11.4477 21 12C21 12.5523 20.5523 13 20 13H10.8293C10.4175 14.1652 9.30622 15 8 15C6.69378 15 5.58254 14.1652 5.17071 13H4C3.44772 13 3 12.5523 3 12C3 11.4477 3.44772 11 4 11H5.17071C5.58254 9.83481 6.69378 9 8 9ZM8 11C7.44772 11 7 11.4477 7 12C7 12.5523 7.44772 13 8 13C8.55228 13 9 12.5523 9 12C9 11.4477 8.55228 11 8 11Z" fill="white"/>
<path fill-rule="evenodd" clip-rule="evenodd" d="M19.8293 17C19.4175 15.8348 18.3062 15 17 15C15.6938 15 14.5825 15.8348 14.1707 17H4C3.44772 17 3 17.4477 3 18C3 18.5523 3.44772 19 4 19H14.1707C14.5825 20.1652 15.6938 21 17 21C18.3062 21 19.4175 20.1652 19.8293 19H20C20.5523 19 21 18.5523 21 18C21 17.4477 20.5523 17 20 17H19.8293ZM16 18C16 17.4477 16.4477 17 17 17C17.5523 17 18 17.4477 18 18C18 18.5523 17.5523 19 17 19C16.4477 19 16 18.5523 16 18Z" fill="white"/>
</svg>
