<svg width="18" height="14" viewBox="0 0 18 14" fill="none" xmlns="http://www.w3.org/2000/svg">
<path d="M17.0942 1.88511C16.5658 2.1125 16.0103 2.27085 15.4415 2.35623C15.7074 2.31063 16.0988 1.83192 16.2545 1.63816C16.4912 1.34588 16.6716 1.01223 16.7864 0.654142C16.7864 0.627547 16.813 0.589554 16.7864 0.570558C16.773 0.563242 16.758 0.559408 16.7428 0.559408C16.7275 0.559408 16.7125 0.563242 16.6991 0.570558C16.0814 0.905056 15.424 1.16035 14.7424 1.33042C14.7187 1.33767 14.6934 1.33832 14.6693 1.3323C14.6452 1.32628 14.6232 1.3138 14.6057 1.29622C14.5526 1.23305 14.4955 1.1734 14.4347 1.11766C14.1567 0.868593 13.8413 0.664745 13.5001 0.513568C13.0394 0.324583 12.5418 0.242737 12.0449 0.274213C11.5628 0.304663 11.092 0.433987 10.662 0.654142C10.2385 0.88625 9.86632 1.20158 9.56779 1.58117C9.25377 1.97187 9.02706 2.42529 8.90291 2.91092C8.80054 3.37286 8.78893 3.85029 8.86872 4.31666C8.86872 4.39645 8.86872 4.40785 8.80033 4.39645C6.09143 3.99752 3.86885 3.0363 2.05278 0.973283C1.973 0.8821 1.93121 0.8821 1.86662 0.973283C1.07636 2.17386 1.46009 4.07351 2.44791 5.01193C2.58089 5.13731 2.71766 5.25889 2.86203 5.37287C2.40913 5.34071 1.96728 5.21798 1.56267 5.01193C1.48669 4.96254 1.4449 4.98914 1.4411 5.08032C1.43033 5.20674 1.43033 5.33384 1.4411 5.46025C1.52037 6.06608 1.75913 6.63999 2.13295 7.12329C2.50677 7.60659 3.00224 7.98193 3.5687 8.21094C3.70679 8.27009 3.85068 8.31465 3.99802 8.34391C3.57874 8.42646 3.14872 8.4393 2.72526 8.38191C2.63408 8.36291 2.59988 8.4123 2.63408 8.49969C3.19257 10.0194 4.40455 10.4829 5.29358 10.7413C5.41516 10.7603 5.53674 10.7603 5.67351 10.7907C5.67351 10.7907 5.67351 10.7907 5.65072 10.8135C5.38856 11.2922 4.32856 11.6151 3.84225 11.7823C2.95461 12.1011 2.00822 12.223 1.06877 12.1394C0.920593 12.1166 0.8864 12.1204 0.848407 12.1394C0.810414 12.1584 0.848407 12.2002 0.890199 12.2382C1.08016 12.3636 1.27013 12.4738 1.46769 12.5801C2.05584 12.9009 2.67763 13.1558 3.32175 13.34C6.65753 14.2594 10.4112 13.5831 12.915 11.0946C14.883 9.14177 15.5745 6.44807 15.5745 3.75057C15.5745 3.64799 15.6999 3.5872 15.772 3.53401C16.2699 3.14606 16.7089 2.6879 17.0752 2.17386C17.1386 2.09724 17.1712 1.99967 17.1664 1.90031C17.1664 1.84332 17.1664 1.85472 17.0942 1.88511Z" fill="#33CCFF"/>
</svg>
