<svg width="32" height="32" viewBox="0 0 32 32" fill="none" xmlns="http://www.w3.org/2000/svg">
<path d="M24.9002 11.5986C24.6912 10.8132 24.0732 10.1936 23.2868 9.98119C21.865 9.6001 16.1603 9.6001 16.1603 9.6001C16.1603 9.6001 10.4585 9.6001 9.03374 9.98119C8.25029 10.1906 7.63223 10.8103 7.4204 11.5986C7.04028 13.0241 7.04028 16.0001 7.04028 16.0001C7.04028 16.0001 7.04028 18.9761 7.4204 20.4016C7.62933 21.187 8.24738 21.8066 9.03374 22.019C10.4585 22.4001 16.1603 22.4001 16.1603 22.4001C16.1603 22.4001 21.865 22.4001 23.2868 22.019C24.0703 21.8096 24.6883 21.1899 24.9002 20.4016C25.2803 18.9761 25.2803 16.0001 25.2803 16.0001C25.2803 16.0001 25.2803 13.0241 24.9002 11.5986Z" fill="#FF3000"/>
<path d="M14.338 18.7434L19.0765 16.0001L14.338 13.2568V18.7434Z" fill="white"/>
</svg>
